<svg id="Layer_1" xmlns="http://www.w3.org/2000/svg" viewBox="0 0 349.2 41.6"><style>.st0{fill:#fff}</style><path class="st0" d="M57.6 27.8c-.4-.3-.7-.8-.7-1.3 0-.9.7-1.6 1.6-1.6.5 0 .8.1 1 .3 1.6 1.3 3.4 2 5.5 2 2.2 0 3.5-1 3.5-2.5v-.1c0-1.4-.8-2.2-4.5-3-4.2-1-6.6-2.3-6.6-5.9v-.1c0-3.4 2.8-5.7 6.8-5.7 2.5 0 4.5.7 6.3 1.8.4.2.8.7.8 1.4 0 .9-.7 1.6-1.6 1.6-.3 0-.6-.1-.9-.3-1.5-1-3-1.5-4.6-1.5-2 0-3.2 1-3.2 2.3v.1c0 1.5.9 2.2 4.7 3.1 4.2 1 6.3 2.5 6.3 5.8v.1c0 3.7-2.9 5.9-7.1 5.9-2.6.1-5.1-.8-7.3-2.4zm21.1-15.4c-.1-.2-.1-.5-.1-.7 0-1 .8-1.7 1.8-1.7.8 0 1.5.5 1.7 1.3l4.6 13.6 4.5-13.6c.3-.8.9-1.4 1.8-1.4h.3c.9 0 1.5.6 1.8 1.4l4.5 13.6 4.6-13.6c.3-.7.8-1.2 1.7-1.2.9 0 1.7.7 1.7 1.7 0 .2-.1.5-.2.7l-5.9 16.4c-.3.9-1 1.4-1.8 1.4h-.3c-.8 0-1.5-.5-1.8-1.4L93.2 16l-4.4 12.9c-.3.9-1 1.4-1.8 1.4h-.3c-.8 0-1.5-.5-1.8-1.4l-6.2-16.5zm36.8-.6c0-1 .8-1.7 1.8-1.7s1.7.8 1.7 1.7v16.6c0 1-.8 1.7-1.7 1.7-1 0-1.8-.8-1.8-1.7V11.8zm12.5 16c-.4-.3-.7-.8-.7-1.3 0-.9.7-1.6 1.6-1.6.5 0 .8.1 1 .3 1.6 1.3 3.4 2 5.5 2 2.2 0 3.5-1 3.5-2.5v-.1c0-1.4-.8-2.2-4.5-3-4.2-1-6.6-2.3-6.6-5.9v-.1c0-3.4 2.8-5.7 6.8-5.7 2.5 0 4.5.7 6.3 1.8.4.2.8.7.8 1.4 0 .9-.7 1.6-1.6 1.6-.3 0-.6-.1-.9-.3-1.5-1-3-1.5-4.6-1.5-2 0-3.2 1-3.2 2.3v.1c0 1.5.9 2.2 4.7 3.1 4.2 1 6.3 2.5 6.3 5.8v.1c0 3.7-2.9 5.9-7.1 5.9-2.5.1-5.1-.8-7.3-2.4zm22.1 0c-.4-.3-.7-.8-.7-1.3 0-.9.7-1.6 1.6-1.6.5 0 .8.1 1 .3 1.6 1.3 3.4 2 5.5 2 2.2 0 3.5-1 3.5-2.5v-.1c0-1.4-.8-2.2-4.5-3-4.2-1-6.6-2.3-6.6-5.9v-.1c0-3.4 2.8-5.7 6.8-5.7 2.5 0 4.5.7 6.3 1.8.4.2.8.7.8 1.4 0 .9-.7 1.6-1.6 1.6-.3 0-.6-.1-.9-.3-1.5-1-3-1.5-4.6-1.5-2 0-3.2 1-3.2 2.3v.1c0 1.5.9 2.2 4.7 3.1 4.2 1 6.3 2.5 6.3 5.8v.1c0 3.7-2.9 5.9-7.1 5.9-2.6.1-5.1-.8-7.3-2.4zm35.6-16c0-1 .8-1.8 1.8-1.8h.4c.8 0 1.3.4 1.6.9l6 9.4 6-9.4c.4-.6.9-.9 1.6-.9h.4c1 0 1.8.8 1.8 1.8v16.6c0 1-.8 1.7-1.8 1.7-.9 0-1.7-.8-1.7-1.7V16.5l-4.8 7.3c-.4.6-.8.9-1.5.9-.6 0-1.1-.3-1.4-.9l-4.8-7.2v11.9c0 1-.8 1.7-1.7 1.7s-1.7-.7-1.7-1.7V11.8zm27.7 15.9l7.4-16.4c.4-.9 1.1-1.4 2.1-1.4h.2c1 0 1.7.5 2.1 1.4l7.4 16.4c.1.3.2.5.2.7 0 .9-.7 1.7-1.6 1.7-.8 0-1.4-.5-1.7-1.2l-1.6-3.7h-9.6l-1.7 3.8c-.3.7-.9 1.1-1.6 1.1-.9 0-1.6-.7-1.6-1.6-.2-.2-.2-.5 0-.8zm12.9-5.6l-3.5-8-3.5 8h7zm14.3-10.2c0-1 .8-1.8 1.8-1.8h7.1c2.5 0 4.4.7 5.7 2 1 1.1 1.6 2.5 1.6 4.3v.1c0 3.2-1.8 5.1-4.5 5.9l3.8 4.8c.3.4.6.8.6 1.3 0 1-.8 1.6-1.7 1.6-.8 0-1.3-.4-1.7-.9l-4.8-6.1h-4.4v5.3c0 1-.8 1.7-1.7 1.7-1 0-1.8-.8-1.8-1.7V11.9zm8.6 8.1c2.5 0 4.1-1.3 4.1-3.3v-.1c0-2.1-1.5-3.3-4.1-3.3h-5.1V20h5.1zm16.2-8.2c0-1 .8-1.7 1.8-1.7s1.7.8 1.7 1.7v8.4l9.4-9.5c.4-.4.8-.7 1.4-.7 1 0 1.6.8 1.6 1.6 0 .5-.2.9-.6 1.3l-6.2 5.9 6.7 8.3c.3.4.5.7.5 1.2 0 1-.8 1.7-1.8 1.7-.7 0-1.1-.3-1.5-.8l-6.4-8.1-3.2 3.1v4.1c0 1-.8 1.7-1.7 1.7-1 0-1.8-.8-1.8-1.7V11.8zm24.4 16.5V11.9c0-1 .8-1.8 1.8-1.8h11.5c.8 0 1.6.7 1.6 1.6 0 .9-.7 1.6-1.6 1.6h-9.8v5.2h8.5c.8 0 1.6.7 1.6 1.6 0 .8-.7 1.5-1.6 1.5h-8.5v5.3h9.9c.8 0 1.6.7 1.6 1.6 0 .9-.7 1.6-1.6 1.6h-11.7c-.9-.1-1.7-.9-1.7-1.8zm28.1-14.9h-4.8c-.9 0-1.6-.7-1.6-1.6 0-.9.7-1.6 1.6-1.6h13.2c.9 0 1.6.7 1.6 1.6 0 .9-.7 1.6-1.6 1.6h-4.8v15c0 1-.8 1.7-1.8 1.7s-1.8-.8-1.8-1.7v-15zm16.8 14.4c-.4-.3-.7-.8-.7-1.3 0-.9.7-1.6 1.6-1.6.5 0 .8.1 1 .3 1.6 1.3 3.4 2 5.5 2s3.5-1 3.5-2.5v-.1c0-1.4-.8-2.2-4.5-3-4.2-1-6.6-2.3-6.6-5.9v-.1c0-3.4 2.8-5.7 6.8-5.7 2.5 0 4.5.7 6.3 1.8.4.2.8.7.8 1.4 0 .9-.7 1.6-1.6 1.6-.3 0-.6-.1-.9-.3-1.5-1-3-1.5-4.6-1.5-2 0-3.2 1-3.2 2.3v.1c0 1.5.9 2.2 4.7 3.1 4.2 1 6.3 2.5 6.3 5.8v.1c0 3.7-2.9 5.9-7.1 5.9-2.6.1-5.1-.8-7.3-2.4z"/><path d="M20.8 0C9.3 0 0 9.3 0 20.8v20.8h20.8c11.5 0 20.8-9.3 20.8-20.8V0H20.8zm6.7 23.1H23v4.5h-4.5v-4.5H14v-4.5h4.5v-4.5H23v4.5h4.5v4.5z" fill="#e6292b"/><path class="st0" d="M18.6 18.6v-4.5h4.5v4.5h4.4v4.5h-4.4v4.4h-4.5v-4.4h-4.5v-4.5z"/></svg>