<svg id="Layer_1" xmlns="http://www.w3.org/2000/svg" viewBox="0 0 192.4 139.2"><style>.st0{fill:#e6292b}</style><path class="st0" d="M74.1 13H32.6l-9.7-9.7H3v-3h21.1l9.8 9.7h40.2z"/><path class="st0" d="M68.9 21.1H26.1l-7.5-7.6H11v-3h8.9l7.5 7.6h41.5zM15.4 31.8H3v-3h11.1l3.8-3.7h48.8v3H19.1zM23 44.9H11v-3h10.7l10.1-10.1h34.5v3H33z"/><path class="st0" d="M23.2 53.9H3v-3h19l12.5-12.6h32.9v3H35.8z"/><path class="st0" d="M27.4 65.1H11v-3h15.1l16-16h28.7v3H43.4z"/><path class="st0" d="M6.1 70.1c-1.4 0-2.8-.5-4-1.5-2.5-2.2-2.8-6.1-.6-8.6 1.1-1.2 2.5-2 4.2-2.1 1.6-.1 3.2.4 4.4 1.5 1.2 1.1 2 2.5 2.1 4.2.1 1.6-.4 3.2-1.5 4.4a6.03 6.03 0 0 1-4.6 2.1zm-2-3.7c1.3 1.1 3.2 1 4.4-.3.5-.6.8-1.4.8-2.2-.1-.8-.4-1.6-1.1-2.1-.6-.5-1.4-.8-2.2-.8-.9 0-1.7.4-2.2 1-1.2 1.3-1 3.3.3 4.4zm2-17.3c-1.4 0-2.8-.5-4-1.5-2.5-2.2-2.8-6.1-.6-8.6 1.1-1.2 2.5-2 4.2-2.1 1.6-.1 3.2.4 4.4 1.5 1.2 1.1 2 2.5 2.1 4.2.1 1.6-.4 3.2-1.5 4.4a6.03 6.03 0 0 1-4.6 2.1zm-2-3.7c1.3 1.1 3.2 1 4.4-.3.5-.6.8-1.4.8-2.2-.1-.8-.4-1.6-1.1-2.1-.6-.5-1.4-.8-2.2-.8-.9 0-1.7.4-2.2 1-1.2 1.3-1 3.3.3 4.4zm2-27.3c-1.4 0-2.8-.5-4-1.5-2.5-2.2-2.8-6.1-.6-8.6C2.6 6.8 4 6.1 5.7 6c1.6-.1 3.2.4 4.4 1.5 1.2 1.1 2 2.5 2.1 4.2.1 1.6-.4 3.2-1.5 4.4-1.2 1.3-2.9 2-4.6 2zm-2-3.7c1.3 1.1 3.2 1 4.4-.3.5-.6.8-1.4.8-2.2-.2-.9-.6-1.6-1.2-2.2-.6-.5-1.4-.8-2.2-.7-.8 0-1.6.4-2.1 1-1.2 1.3-1 3.3.3 4.4zM159.7 13h-41.4v-3h40.2l9.7-9.7h21.1v3h-19.8z"/><path class="st0" d="M166.2 21.1h-42.7v-3H165l7.5-7.6h8.8v3h-7.6zm23.1 10.7H177l-3.8-3.7h-47.6v-3h48.9l3.7 3.7h11.1zm-8 13.1h-11.9l-10.1-10.1h-33.2v-3h34.5l10 10.1h10.7z"/><path class="st0" d="M189.3 53.9h-20.1l-12.6-12.6H125v-3h32.8l12.6 12.6h18.9z"/><path class="st0" d="M181.3 65.1H165l-16-16h-27.5v-3h28.7l16 16h15.1z"/><path class="st0" d="M186.3 70.1c-1.7 0-3.4-.7-4.6-2.1-1.1-1.2-1.6-2.8-1.5-4.4.1-1.6.9-3.1 2.1-4.2 1.2-1.1 2.8-1.6 4.4-1.5 1.6.1 3.1.9 4.2 2.1 2.2 2.5 1.9 6.4-.6 8.6-1.2 1-2.6 1.5-4 1.5zm0-9.1c-.7 0-1.5.3-2 .8-.6.5-1 1.3-1.1 2.1-.1.8.2 1.6.8 2.2 1.1 1.3 3.1 1.4 4.4.3 1.3-1.1 1.4-3.1.3-4.4-.5-.6-1.3-1-2.1-1.1-.2.1-.3.1-.3.1zm0-11.9c-1.7 0-3.4-.7-4.6-2.1-1.1-1.2-1.6-2.8-1.5-4.4.1-1.6.9-3.1 2.1-4.2s2.8-1.6 4.4-1.5c1.6.1 3.1.9 4.2 2.1 2.2 2.5 1.9 6.4-.6 8.6-1.2 1-2.6 1.5-4 1.5zm0-9.1c-.7 0-1.5.3-2 .8-.6.5-1 1.3-1.1 2.1-.1.8.2 1.6.8 2.2 1.1 1.3 3.1 1.4 4.4.3 1.3-1.1 1.4-3.1.3-4.4-.5-.6-1.3-1-2.1-1.1-.2.1-.3.1-.3.1zm0-21.9c-1.7 0-3.4-.7-4.6-2.1-1.1-1.2-1.6-2.8-1.5-4.4.1-1.6.9-3.1 2.1-4.2 1.2-1.1 2.8-1.6 4.4-1.5 1.6.1 3.1.9 4.2 2.1 2.2 2.5 1.9 6.4-.6 8.6-1.2 1-2.6 1.5-4 1.5zm0-9.1c-.7 0-1.5.3-2 .8-.6.5-1 1.3-1.1 2.1-.1.8.2 1.6.8 2.2 1.1 1.3 3.1 1.4 4.4.3 1.3-1.1 1.4-3.1.3-4.4-.5-.6-1.3-1-2.1-1.1-.2.1-.3.1-.3.1zm-73.4 130.2c-3.3 0-6.5-.4-9.6-1.3-10.3-2.8-18.7-10-23-19.6-.7-1.6-1.3-3.3-1.8-5.1l-9-25.2c-.8-2.3-.7-4.7.4-6.9s2.9-3.8 5.2-4.6c4.8-1.7 10 .8 11.7 5.5l.9 2.4.1-53.9c0-4.9 4-8.8 9-8.8s9 4 9 8.9v24.2c1.6-1.1 3.5-1.7 5.3-1.7 2.4 0 4.7.9 6.4 2.6 1.4 1.3 2.2 3 2.5 4.8 1.6-1.1 3.5-1.7 5.4-1.7 2.4 0 4.7.9 6.4 2.6 1.1 1.1 1.9 2.5 2.3 3.9 1.2-.8 2.7-1.2 4.2-1.2h.8c4.4.4 9.6 3.8 9.6 17.8v22c0 5.6-1.4 11.2-4 16.2-2.6 4.8-6.3 9-10.7 12.2-.2.1-.3.2-.5.3-4.3 3-9.1 4.9-14.3 5.8-2.2.6-4.2.8-6.3.8zM78.1 80c-.6 0-1.1.1-1.7.3-1.3.4-2.3 1.3-2.9 2.5-.6 1.2-.7 2.6-.2 3.8l9 25.3v.2c.4 1.5 1 3.1 1.6 4.5 3.8 8.5 11.3 14.9 20.4 17.4 2.7.8 5.6 1.1 8.5 1.1 1.8 0 3.7-.2 5.5-.5 4.6-.8 8.8-2.5 12.6-5.1.1-.1.3-.2.4-.3 4-2.8 7.2-6.6 9.5-10.8 2.4-4.5 3.6-9.3 3.6-14.3v-22c0-6-1-13.3-5.8-13.8h-.5c-1.2 0-2.1.4-2.8 1.2-.7.8-1.1 2.1-1.1 3.5v8.9c0 .6-.3 1.2-.7 1.5-.5.4-1.1.6-1.7.5-1-.2-1.7-1-1.7-2V67.7c0-1.3-.5-2.5-1.4-3.4-.9-.9-2.2-1.4-3.5-1.4-2.8 0-5.3 2.3-5.3 4.8v12c0 1.1-.9 2-2.1 2-1.1 0-2-.9-2-2V61.9c0-1.3-.5-2.5-1.4-3.4-.9-.9-2.2-1.4-3.5-1.4-1.3 0-2.7.5-3.7 1.5s-1.6 2.2-1.6 3.4v15.4c0 .6-.3 1.2-.7 1.5-.5.4-1.1.6-1.7.5-1-.2-1.7-1-1.7-2l.1-47c0-2.7-2.2-4.8-4.9-4.8s-4.9 2.2-4.9 4.8l-.1 65.7c0 1-.7 1.8-1.7 2-1 .2-1.9-.4-2.3-1.3l-4.8-13.5c-.7-2-2.7-3.3-4.8-3.3z"/><path class="st0" d="M83.3 49.2c-.5 0-.9-.2-1.3-.5-5.1-4.3-8.1-10.5-8.1-17.1C73.9 19.3 84 9.3 96.6 9.3s22.7 10 22.7 22.3c0 5.6-2.1 11-6 15.1-.8.8-2.1.9-2.9.1-.8-.8-.9-2-.1-2.9 3.2-3.4 4.9-7.8 4.9-12.4 0-10.1-8.3-18.3-18.6-18.3-10.3.1-18.6 8.3-18.6 18.4 0 5.4 2.4 10.5 6.6 14 .9.7 1 2 .2 2.8-.4.5-.9.8-1.5.8z"/><path class="st0" d="M83.1 60.1c-.3 0-.6-.1-.9-.2-5.3-2.6-9.7-6.5-12.8-11.4-3.2-5-4.9-10.9-4.9-16.8C64.4 14.2 78.8 0 96.6 0c17.7 0 32.1 14.2 32.1 31.6 0 7.2-2.5 14.2-7.1 19.8-.7.9-2 1-2.9.3-.9-.7-1-2-.3-2.8 4-4.9 6.2-10.9 6.2-17.3C124.6 16.4 112 4 96.6 4s-28 12.4-28 27.6c0 5.2 1.5 10.3 4.3 14.7 2.7 4.3 6.6 7.7 11.2 10 1 .5 1.4 1.7.9 2.7-.4.7-1.1 1.1-1.9 1.1z"/></svg>