<svg id="Isolation_Mode" xmlns="http://www.w3.org/2000/svg" viewBox="0 0 24.1 27.9"><style>.st3{fill:none;stroke:#fff;stroke-width:1.1783;stroke-miterlimit:10}.st4{fill:#fff}</style><g id="XMLID_11_"><path fill="#e24956" d="M0 7.1v13.8l12.1 7V13.6z"/><path fill="#f06e79" d="M12.1 13.6l12-6.6-12-7L0 7v.1l12.1 6.5z"/><path fill="#cc2551" d="M12.1 13.6v14.3l12-7V7z"/></g><path class="st3" d="M6.3 11.6h4.5l2.8 7.2h4.7"/><path class="st4" d="M8.7 13.6l-2-2 2-2H7l-2 2 2 2zm7.2 7.2l2-2-2-2h1.7l2 2-2 2z"/><path class="st3" d="M18.3 11.6h-4.5L11 18.8H6.3"/><path class="st4" d="M15.9 9.6l2 2-2 2h1.7l2-2-2-2zm-7.2 7.2l-2 2 2 2H7l-2-2 2-2z"/></svg>