<svg id="Isolation_Mode" xmlns="http://www.w3.org/2000/svg" viewBox="0 0 24.1 27.9"><style>.st3,.st4{fill:none;stroke:#efefef;stroke-width:.5983;stroke-miterlimit:10}.st4{stroke-width:.3989}</style><g id="XMLID_10_"><path fill="#e24956" d="M0 7.1v13.8l12.1 7V13.6z"/><path fill="#f06e79" d="M12.1 13.6l12-6.6-12-7L0 7v.1l12.1 6.5z"/><path fill="#cc2551" d="M12.1 13.6v14.3l12-7V7z"/></g><path class="st3" d="M15.3 10.7l-3.2 1.9-3.2-1.9V7l3.2-1.8L15.3 7zm-3.2 1.9V8.8"/><path class="st4" d="M12.1 8.8L15.3 7m-3.2 1.8L8.9 7"/><path class="st3" d="M14.1 11.4l1.2.7v3.7l-3.2 1.9-3.2-1.9v-3.7l1.1-.6"/><path class="st4" d="M12.1 17.7v-3.8m0 0l3.2-1.8m-3.2 1.8l-3.2-1.8"/><path class="st3" d="M14 16.5l1.2.7v3.7L12 22.7l-3.2-1.8v-3.7l1.2-.7m2 6.2v-3.8"/><path class="st4" d="M12 19l3.3-1.8M12 19l-3.2-1.8"/></svg>