<?xml version="1.0" encoding="utf-8"?>
<!-- Generator: Adobe Illustrator 22.1.0, SVG Export Plug-In . SVG Version: 6.00 Build 0)  -->
<svg version="1.1" id="Layer_1" xmlns="http://www.w3.org/2000/svg" xmlns:xlink="http://www.w3.org/1999/xlink" x="0px" y="0px"
	 viewBox="0 0 349.2 41.6" style="enable-background:new 0 0 349.2 41.6;" xml:space="preserve">
<style type="text/css">
	.st0{fill:#FFFFFF;}
	.st1{fill:#E6292B;}
</style>
<g>
	<g>
		<path class="st0" d="M57.6,27.8c-0.4-0.3-0.7-0.8-0.7-1.3c0-0.9,0.7-1.6,1.6-1.6c0.5,0,0.8,0.1,1,0.3c1.6,1.3,3.4,2,5.5,2
			c2.2,0,3.5-1,3.5-2.5v-0.1c0-1.4-0.8-2.2-4.5-3c-4.2-1-6.6-2.3-6.6-5.9v-0.1c0-3.4,2.8-5.7,6.8-5.7c2.5,0,4.5,0.7,6.3,1.8
			c0.4,0.2,0.8,0.7,0.8,1.4c0,0.9-0.7,1.6-1.6,1.6c-0.3,0-0.6-0.1-0.9-0.3c-1.5-1-3-1.5-4.6-1.5c-2,0-3.2,1-3.2,2.3v0.1
			c0,1.5,0.9,2.2,4.7,3.1c4.2,1,6.3,2.5,6.3,5.8v0.1c0,3.7-2.9,5.9-7.1,5.9C62.3,30.3,59.8,29.4,57.6,27.8z"/>
		<path class="st0" d="M78.7,12.4c-0.1-0.2-0.1-0.5-0.1-0.7c0-1,0.8-1.7,1.8-1.7c0.8,0,1.5,0.5,1.7,1.3l4.6,13.6l4.5-13.6
			c0.3-0.8,0.9-1.4,1.8-1.4h0.3c0.9,0,1.5,0.6,1.8,1.4l4.5,13.6l4.6-13.6c0.3-0.7,0.8-1.2,1.7-1.2c0.9,0,1.7,0.7,1.7,1.7
			c0,0.2-0.1,0.5-0.2,0.7l-5.9,16.4c-0.3,0.9-1,1.4-1.8,1.4h-0.3c-0.8,0-1.5-0.5-1.8-1.4l-4.4-12.9l-4.4,12.9
			c-0.3,0.9-1,1.4-1.8,1.4h-0.3c-0.8,0-1.5-0.5-1.8-1.4L78.7,12.4z"/>
		<path class="st0" d="M115.5,11.8c0-1,0.8-1.7,1.8-1.7c1,0,1.7,0.8,1.7,1.7v16.6c0,1-0.8,1.7-1.7,1.7c-1,0-1.8-0.8-1.8-1.7V11.8z"
			/>
		<path class="st0" d="M128,27.8c-0.4-0.3-0.7-0.8-0.7-1.3c0-0.9,0.7-1.6,1.6-1.6c0.5,0,0.8,0.1,1,0.3c1.6,1.3,3.4,2,5.5,2
			c2.2,0,3.5-1,3.5-2.5v-0.1c0-1.4-0.8-2.2-4.5-3c-4.2-1-6.6-2.3-6.6-5.9v-0.1c0-3.4,2.8-5.7,6.8-5.7c2.5,0,4.5,0.7,6.3,1.8
			c0.4,0.2,0.8,0.7,0.8,1.4c0,0.9-0.7,1.6-1.6,1.6c-0.3,0-0.6-0.1-0.9-0.3c-1.5-1-3-1.5-4.6-1.5c-2,0-3.2,1-3.2,2.3v0.1
			c0,1.5,0.9,2.2,4.7,3.1c4.2,1,6.3,2.5,6.3,5.8v0.1c0,3.7-2.9,5.9-7.1,5.9C132.8,30.3,130.2,29.4,128,27.8z"/>
		<path class="st0" d="M150.1,27.8c-0.4-0.3-0.7-0.8-0.7-1.3c0-0.9,0.7-1.6,1.6-1.6c0.5,0,0.8,0.1,1,0.3c1.6,1.3,3.4,2,5.5,2
			c2.2,0,3.5-1,3.5-2.5v-0.1c0-1.4-0.8-2.2-4.5-3c-4.2-1-6.6-2.3-6.6-5.9v-0.1c0-3.4,2.8-5.7,6.8-5.7c2.5,0,4.5,0.7,6.3,1.8
			c0.4,0.2,0.8,0.7,0.8,1.4c0,0.9-0.7,1.6-1.6,1.6c-0.3,0-0.6-0.1-0.9-0.3c-1.5-1-3-1.5-4.6-1.5c-2,0-3.2,1-3.2,2.3v0.1
			c0,1.5,0.9,2.2,4.7,3.1c4.2,1,6.3,2.5,6.3,5.8v0.1c0,3.7-2.9,5.9-7.1,5.9C154.8,30.3,152.3,29.4,150.1,27.8z"/>
		<path class="st0" d="M185.7,11.8c0-1,0.8-1.8,1.8-1.8h0.4c0.8,0,1.3,0.4,1.6,0.9l6,9.4l6-9.4c0.4-0.6,0.9-0.9,1.6-0.9h0.4
			c1,0,1.8,0.8,1.8,1.8v16.6c0,1-0.8,1.7-1.8,1.7c-0.9,0-1.7-0.8-1.7-1.7V16.5l-4.8,7.3c-0.4,0.6-0.8,0.9-1.5,0.9
			c-0.6,0-1.1-0.3-1.4-0.9l-4.8-7.2v11.9c0,1-0.8,1.7-1.7,1.7s-1.7-0.7-1.7-1.7V11.8z"/>
		<path class="st0" d="M213.4,27.7l7.4-16.4c0.4-0.9,1.1-1.4,2.1-1.4h0.2c1,0,1.7,0.5,2.1,1.4l7.4,16.4c0.1,0.3,0.2,0.5,0.2,0.7
			c0,0.9-0.7,1.7-1.6,1.7c-0.8,0-1.4-0.5-1.7-1.2l-1.6-3.7h-9.6l-1.7,3.8c-0.3,0.7-0.9,1.1-1.6,1.1c-0.9,0-1.6-0.7-1.6-1.6
			C213.2,28.3,213.2,28,213.4,27.7z M226.3,22.1l-3.5-8l-3.5,8H226.3z"/>
		<path class="st0" d="M240.6,11.9c0-1,0.8-1.8,1.8-1.8h7.1c2.5,0,4.4,0.7,5.7,2c1,1.1,1.6,2.5,1.6,4.3v0.1c0,3.2-1.8,5.1-4.5,5.9
			l3.8,4.8c0.3,0.4,0.6,0.8,0.6,1.3c0,1-0.8,1.6-1.7,1.6c-0.8,0-1.3-0.4-1.7-0.9l-4.8-6.1h-4.4v5.3c0,1-0.8,1.7-1.7,1.7
			c-1,0-1.8-0.8-1.8-1.7V11.9z M249.2,20c2.5,0,4.1-1.3,4.1-3.3v-0.1c0-2.1-1.5-3.3-4.1-3.3h-5.1V20H249.2z"/>
		<path class="st0" d="M265.4,11.8c0-1,0.8-1.7,1.8-1.7c1,0,1.7,0.8,1.7,1.7v8.4l9.4-9.5c0.4-0.4,0.8-0.7,1.4-0.7
			c1,0,1.6,0.8,1.6,1.6c0,0.5-0.2,0.9-0.6,1.3l-6.2,5.9l6.7,8.3c0.3,0.4,0.5,0.7,0.5,1.2c0,1-0.8,1.7-1.8,1.7
			c-0.7,0-1.1-0.3-1.5-0.8l-6.4-8.1l-3.2,3.1v4.1c0,1-0.8,1.7-1.7,1.7c-1,0-1.8-0.8-1.8-1.7V11.8z"/>
		<path class="st0" d="M289.8,28.3V11.9c0-1,0.8-1.8,1.8-1.8h11.5c0.8,0,1.6,0.7,1.6,1.6c0,0.9-0.7,1.6-1.6,1.6h-9.8v5.2h8.5
			c0.8,0,1.6,0.7,1.6,1.6c0,0.8-0.7,1.5-1.6,1.5h-8.5v5.3h9.9c0.8,0,1.6,0.7,1.6,1.6c0,0.9-0.7,1.6-1.6,1.6h-11.7
			C290.6,30,289.8,29.2,289.8,28.3z"/>
		<path class="st0" d="M317.9,13.4h-4.8c-0.9,0-1.6-0.7-1.6-1.6c0-0.9,0.7-1.6,1.6-1.6h13.2c0.9,0,1.6,0.7,1.6,1.6
			c0,0.9-0.7,1.6-1.6,1.6h-4.8v15c0,1-0.8,1.7-1.8,1.7c-1,0-1.8-0.8-1.8-1.7V13.4z"/>
		<path class="st0" d="M334.7,27.8c-0.4-0.3-0.7-0.8-0.7-1.3c0-0.9,0.7-1.6,1.6-1.6c0.5,0,0.8,0.1,1,0.3c1.6,1.3,3.4,2,5.5,2
			s3.5-1,3.5-2.5v-0.1c0-1.4-0.8-2.2-4.5-3c-4.2-1-6.6-2.3-6.6-5.9v-0.1c0-3.4,2.8-5.7,6.8-5.7c2.5,0,4.5,0.7,6.3,1.8
			c0.4,0.2,0.8,0.7,0.8,1.4c0,0.9-0.7,1.6-1.6,1.6c-0.3,0-0.6-0.1-0.9-0.3c-1.5-1-3-1.5-4.6-1.5c-2,0-3.2,1-3.2,2.3v0.1
			c0,1.5,0.9,2.2,4.7,3.1c4.2,1,6.3,2.5,6.3,5.8v0.1c0,3.7-2.9,5.9-7.1,5.9C339.4,30.3,336.9,29.4,334.7,27.8z"/>
	</g>
	<g>
		<path class="st1" d="M20.8,0L20.8,0C9.3,0,0,9.3,0,20.8v20.8h20.8l0,0c11.5,0,20.8-9.3,20.8-20.8v0V0H20.8z M27.5,23.1h-4.5v4.5
			h-4.5v-4.5h-4.5v-4.5h4.5v-4.5h4.5v4.5h4.5V23.1z"/>
		<polygon class="st0" points="18.6,18.6 18.6,14.1 23.1,14.1 23.1,18.6 27.5,18.6 27.5,23.1 23.1,23.1 23.1,27.5 18.6,27.5 
			18.6,23.1 14.1,23.1 14.1,18.6 		"/>
	</g>
</g>
</svg>
