<?xml version="1.0" encoding="utf-8"?>
<!-- Generator: Adobe Illustrator 22.1.0, SVG Export Plug-In . SVG Version: 6.00 Build 0)  -->
<svg version="1.1" id="Layer_1" xmlns="http://www.w3.org/2000/svg" xmlns:xlink="http://www.w3.org/1999/xlink" x="0px" y="0px"
	 viewBox="0 0 192.4 139.2" style="enable-background:new 0 0 192.4 139.2;" xml:space="preserve">
<style type="text/css">
	.st0{fill:#E6292B;}
</style>
<g>
	<g>
		<g>
			<polygon class="st0" points="74.1,13 32.6,13 22.9,3.3 3,3.3 3,0.3 24.1,0.3 33.9,10 74.1,10 			"/>
		</g>
		<g>
			<polygon class="st0" points="68.9,21.1 26.1,21.1 18.6,13.5 11,13.5 11,10.5 19.9,10.5 27.4,18.1 68.9,18.1 			"/>
		</g>
		<g>
			<polygon class="st0" points="15.4,31.8 3,31.8 3,28.8 14.1,28.8 17.9,25.1 66.7,25.1 66.7,28.1 19.1,28.1 			"/>
		</g>
		<g>
			<polygon class="st0" points="23,44.9 11,44.9 11,41.9 21.7,41.9 31.8,31.8 66.3,31.8 66.3,34.8 33,34.8 			"/>
		</g>
		<g>
			<polygon class="st0" points="23.2,53.9 3,53.9 3,50.9 22,50.9 34.5,38.3 67.4,38.3 67.4,41.3 35.8,41.3 			"/>
		</g>
		<g>
			<polygon class="st0" points="27.4,65.1 11,65.1 11,62.1 26.1,62.1 42.1,46.1 70.8,46.1 70.8,49.1 43.4,49.1 			"/>
		</g>
		<g>
			<path class="st0" d="M6.1,70.1c-1.4,0-2.8-0.5-4-1.5v0c-2.5-2.2-2.8-6.1-0.6-8.6c1.1-1.2,2.5-2,4.2-2.1c1.6-0.1,3.2,0.4,4.4,1.5
				c1.2,1.1,2,2.5,2.1,4.2c0.1,1.6-0.4,3.2-1.5,4.4C9.5,69.4,7.8,70.1,6.1,70.1z M4.1,66.4c1.3,1.1,3.2,1,4.4-0.3
				c0.5-0.6,0.8-1.4,0.8-2.2c-0.1-0.8-0.4-1.6-1.1-2.1c-0.6-0.5-1.4-0.8-2.2-0.8C5.1,61,4.3,61.4,3.8,62C2.6,63.3,2.8,65.3,4.1,66.4
				L4.1,66.4z"/>
		</g>
		<g>
			<path class="st0" d="M6.1,49.1c-1.4,0-2.8-0.5-4-1.5v0c-2.5-2.2-2.8-6.1-0.6-8.6c1.1-1.2,2.5-2,4.2-2.1c1.6-0.1,3.2,0.4,4.4,1.5
				c1.2,1.1,2,2.5,2.1,4.2c0.1,1.6-0.4,3.2-1.5,4.4C9.5,48.4,7.8,49.1,6.1,49.1z M4.1,45.4c1.3,1.1,3.2,1,4.4-0.3
				c0.5-0.6,0.8-1.4,0.8-2.2c-0.1-0.8-0.4-1.6-1.1-2.1c-0.6-0.5-1.4-0.8-2.2-0.8C5.1,40,4.3,40.4,3.8,41C2.6,42.3,2.8,44.3,4.1,45.4
				L4.1,45.4z"/>
		</g>
		<g>
			<path class="st0" d="M6.1,18.1c-1.4,0-2.8-0.5-4-1.5v0c-2.5-2.2-2.8-6.1-0.6-8.6C2.6,6.8,4,6.1,5.7,6c1.6-0.1,3.2,0.4,4.4,1.5
				c1.2,1.1,2,2.5,2.1,4.2c0.1,1.6-0.4,3.2-1.5,4.4C9.5,17.4,7.8,18.1,6.1,18.1z M4.1,14.4c1.3,1.1,3.2,1,4.4-0.3
				c0.5-0.6,0.8-1.4,0.8-2.2C9.1,11,8.7,10.3,8.1,9.7C7.5,9.2,6.7,8.9,5.9,9C5.1,9,4.3,9.4,3.8,10C2.6,11.3,2.8,13.3,4.1,14.4
				L4.1,14.4z"/>
		</g>
	</g>
	<g>
		<g>
			<polygon class="st0" points="159.7,13 118.3,13 118.3,10 158.5,10 168.2,0.3 189.3,0.3 189.3,3.3 169.5,3.3 			"/>
		</g>
		<g>
			<polygon class="st0" points="166.2,21.1 123.5,21.1 123.5,18.1 165,18.1 172.5,10.5 181.3,10.5 181.3,13.5 173.7,13.5 			"/>
		</g>
		<g>
			<polygon class="st0" points="189.3,31.8 177,31.8 173.2,28.1 125.6,28.1 125.6,25.1 174.5,25.1 178.2,28.8 189.3,28.8 			"/>
		</g>
		<g>
			<polygon class="st0" points="181.3,44.9 169.4,44.9 159.3,34.8 126.1,34.8 126.1,31.8 160.6,31.8 170.6,41.9 181.3,41.9 			"/>
		</g>
		<g>
			<polygon class="st0" points="189.3,53.9 169.2,53.9 156.6,41.3 125,41.3 125,38.3 157.8,38.3 170.4,50.9 189.3,50.9 			"/>
		</g>
		<g>
			<polygon class="st0" points="181.3,65.1 165,65.1 149,49.1 121.5,49.1 121.5,46.1 150.2,46.1 166.2,62.1 181.3,62.1 			"/>
		</g>
		<g>
			<path class="st0" d="M186.3,70.1c-1.7,0-3.4-0.7-4.6-2.1c-1.1-1.2-1.6-2.8-1.5-4.4c0.1-1.6,0.9-3.1,2.1-4.2
				c1.2-1.1,2.8-1.6,4.4-1.5c1.6,0.1,3.1,0.9,4.2,2.1c2.2,2.5,1.9,6.4-0.6,8.6v0C189.1,69.6,187.7,70.1,186.3,70.1z M186.3,61
				c-0.7,0-1.5,0.3-2,0.8c-0.6,0.5-1,1.3-1.1,2.1c-0.1,0.8,0.2,1.6,0.8,2.2c1.1,1.3,3.1,1.4,4.4,0.3l0,0c1.3-1.1,1.4-3.1,0.3-4.4
				c-0.5-0.6-1.3-1-2.1-1.1C186.4,61,186.3,61,186.3,61z"/>
		</g>
		<g>
			<path class="st0" d="M186.3,49.1c-1.7,0-3.4-0.7-4.6-2.1c-1.1-1.2-1.6-2.8-1.5-4.4c0.1-1.6,0.9-3.1,2.1-4.2s2.8-1.6,4.4-1.5
				c1.6,0.1,3.1,0.9,4.2,2.1c2.2,2.5,1.9,6.4-0.6,8.6v0C189.1,48.6,187.7,49.1,186.3,49.1z M186.3,40c-0.7,0-1.5,0.3-2,0.8
				c-0.6,0.5-1,1.3-1.1,2.1c-0.1,0.8,0.2,1.6,0.8,2.2c1.1,1.3,3.1,1.4,4.4,0.3l0,0c1.3-1.1,1.4-3.1,0.3-4.4c-0.5-0.6-1.3-1-2.1-1.1
				C186.4,40,186.3,40,186.3,40z"/>
		</g>
		<g>
			<path class="st0" d="M186.3,18.1c-1.7,0-3.4-0.7-4.6-2.1c-1.1-1.2-1.6-2.8-1.5-4.4c0.1-1.6,0.9-3.1,2.1-4.2
				c1.2-1.1,2.8-1.6,4.4-1.5c1.6,0.1,3.1,0.9,4.2,2.1c2.2,2.5,1.9,6.4-0.6,8.6v0C189.1,17.6,187.7,18.1,186.3,18.1z M186.3,9
				c-0.7,0-1.5,0.3-2,0.8c-0.6,0.5-1,1.3-1.1,2.1c-0.1,0.8,0.2,1.6,0.8,2.2c1.1,1.3,3.1,1.4,4.4,0.3l0,0c1.3-1.1,1.4-3.1,0.3-4.4
				c-0.5-0.6-1.3-1-2.1-1.1C186.4,9,186.3,9,186.3,9z"/>
		</g>
	</g>
	<g>
		<g>
			<g>
				<path class="st0" d="M112.9,139.2C112.9,139.2,112.9,139.2,112.9,139.2c-3.3,0-6.5-0.4-9.6-1.3c-10.3-2.8-18.7-10-23-19.6
					c-0.7-1.6-1.3-3.3-1.8-5.1l-9-25.2c-0.8-2.3-0.7-4.7,0.4-6.9c1.1-2.2,2.9-3.8,5.2-4.6c4.8-1.7,10,0.8,11.7,5.5l0.9,2.4l0.1-53.9
					c0-4.9,4-8.8,9-8.8c0,0,0,0,0,0c5,0,9,4,9,8.9l0,24.2c1.6-1.1,3.5-1.7,5.3-1.7c0,0,0,0,0,0c2.4,0,4.7,0.9,6.4,2.6
					c1.4,1.3,2.2,3,2.5,4.8c1.6-1.1,3.5-1.7,5.4-1.7c0,0,0,0,0,0c2.4,0,4.7,0.9,6.4,2.6c1.1,1.1,1.9,2.5,2.3,3.9
					c1.2-0.8,2.7-1.2,4.2-1.2c0,0,0,0,0,0l0.6,0c0.1,0,0.1,0,0.2,0c4.4,0.4,9.6,3.8,9.6,17.8l0,22c0,5.6-1.4,11.2-4,16.2
					c-2.6,4.8-6.3,9-10.7,12.2c-0.2,0.1-0.3,0.2-0.5,0.3c-4.3,3-9.1,4.9-14.3,5.8C117,139,115,139.2,112.9,139.2z M78.1,80
					c-0.6,0-1.1,0.1-1.7,0.3c-1.3,0.4-2.3,1.3-2.9,2.5c-0.6,1.2-0.7,2.6-0.2,3.8l9,25.3c0,0,0,0.1,0,0.2c0.4,1.5,1,3.1,1.6,4.5
					c3.8,8.5,11.3,14.9,20.4,17.4c2.7,0.8,5.6,1.1,8.5,1.1c1.8,0,3.7-0.2,5.5-0.5c4.6-0.8,8.8-2.5,12.6-5.1c0.1-0.1,0.3-0.2,0.4-0.3
					c4-2.8,7.2-6.6,9.5-10.8c2.4-4.5,3.6-9.3,3.6-14.3l0-22c0-6-1-13.3-5.8-13.8l-0.5,0c-1.2,0-2.1,0.4-2.8,1.2
					c-0.7,0.8-1.1,2.1-1.1,3.5l0,8.9c0,0.6-0.3,1.2-0.7,1.5c-0.5,0.4-1.1,0.6-1.7,0.5l0,0c-1-0.2-1.7-1-1.7-2l0-14.2
					c0-1.3-0.5-2.5-1.4-3.4c-0.9-0.9-2.2-1.4-3.5-1.4c0,0,0,0,0,0c-2.8,0-5.3,2.3-5.3,4.8l0,12c0,1.1-0.9,2-2.1,2c0,0,0,0,0,0
					c-1.1,0-2-0.9-2-2l0-0.1l0-17.7c0-1.3-0.5-2.5-1.4-3.4c-0.9-0.9-2.2-1.4-3.5-1.4c0,0,0,0,0,0c-1.3,0-2.7,0.5-3.7,1.5
					c-1,1-1.6,2.2-1.6,3.4l0,15.4c0,0.6-0.3,1.2-0.7,1.5c-0.5,0.4-1.1,0.6-1.7,0.5c-1-0.2-1.7-1-1.7-2l0.1-47c0-2.7-2.2-4.8-4.9-4.8
					c0,0,0,0,0,0c-2.7,0-4.9,2.2-4.9,4.8l-0.1,65.7c0,1-0.7,1.8-1.7,2c-1,0.2-1.9-0.4-2.3-1.3l-4.8-13.5C82.2,81.3,80.2,80,78.1,80z
					"/>
			</g>
		</g>
		<g>
			<g>
				<path class="st0" d="M83.3,49.2c-0.5,0-0.9-0.2-1.3-0.5c-5.1-4.3-8.1-10.5-8.1-17.1C73.9,19.3,84,9.3,96.6,9.3
					s22.7,10,22.7,22.3c0,5.6-2.1,11-6,15.1c-0.8,0.8-2.1,0.9-2.9,0.1c-0.8-0.8-0.9-2-0.1-2.9c3.2-3.4,4.9-7.8,4.9-12.4
					c0-10.1-8.3-18.3-18.6-18.3C86.3,13.3,78,21.5,78,31.6c0,5.4,2.4,10.5,6.6,14c0.9,0.7,1,2,0.2,2.8
					C84.4,48.9,83.9,49.2,83.3,49.2z"/>
			</g>
		</g>
		<g>
			<g>
				<path class="st0" d="M83.1,60.1c-0.3,0-0.6-0.1-0.9-0.2c-5.3-2.6-9.7-6.5-12.8-11.4c-3.2-5-4.9-10.9-4.9-16.8
					C64.4,14.2,78.8,0,96.6,0c17.7,0,32.1,14.2,32.1,31.6c0,7.2-2.5,14.2-7.1,19.8c-0.7,0.9-2,1-2.9,0.3c-0.9-0.7-1-2-0.3-2.8
					c4-4.9,6.2-10.9,6.2-17.3C124.6,16.4,112,4,96.6,4c-15.4,0-28,12.4-28,27.6c0,5.2,1.5,10.3,4.3,14.7c2.7,4.3,6.6,7.7,11.2,10
					c1,0.5,1.4,1.7,0.9,2.7C84.6,59.7,83.9,60.1,83.1,60.1z"/>
			</g>
		</g>
	</g>
</g>
</svg>
