<?xml version="1.0" encoding="utf-8"?>
<!-- Generator: Adobe Illustrator 22.1.0, SVG Export Plug-In . SVG Version: 6.00 Build 0)  -->
<svg version="1.1" id="Isolation_Mode" xmlns="http://www.w3.org/2000/svg" xmlns:xlink="http://www.w3.org/1999/xlink" x="0px"
	 y="0px" viewBox="0 0 24.1 27.9" style="enable-background:new 0 0 24.1 27.9;" xml:space="preserve">
<style type="text/css">
	.st0{fill:#E24956;}
	.st1{fill:#F06E79;}
	.st2{fill:#CC2551;}
	.st3{fill:none;stroke:#EFEFEF;stroke-width:0.5983;stroke-miterlimit:10;}
	.st4{fill:none;stroke:#EFEFEF;stroke-width:0.3989;stroke-miterlimit:10;}
</style>
<g>
	<g>
		<g id="XMLID_10_">
			<g>
				<polygon class="st0" points="0,7.1 0,20.9 12.1,27.9 12.1,13.6 12.1,13.6 				"/>
				<polygon class="st1" points="12.1,13.6 24.1,7 24.1,7 12.1,0 0,7 0,7.1 12.1,13.6 				"/>
				<polygon class="st2" points="12.1,13.6 12.1,27.9 24.1,20.9 24.1,7 				"/>
			</g>
		</g>
	</g>
	<g>
		<g>
			<polygon class="st3" points="15.3,10.7 12.1,12.6 8.9,10.7 8.9,7 12.1,5.2 15.3,7 			"/>
			<line class="st3" x1="12.1" y1="12.6" x2="12.1" y2="8.8"/>
			<line class="st4" x1="12.1" y1="8.8" x2="15.3" y2="7"/>
			<line class="st4" x1="12.1" y1="8.8" x2="8.9" y2="7"/>
		</g>
		<g>
			<polyline class="st3" points="14.1,11.4 15.3,12.1 15.3,15.8 12.1,17.7 8.9,15.8 8.9,12.1 10,11.5 			"/>
			<line class="st4" x1="12.1" y1="17.7" x2="12.1" y2="13.9"/>
			<line class="st4" x1="12.1" y1="13.9" x2="15.3" y2="12.1"/>
			<line class="st4" x1="12.1" y1="13.9" x2="8.9" y2="12.1"/>
		</g>
		<g>
			<polyline class="st3" points="14,16.5 15.2,17.2 15.2,20.9 12,22.7 8.8,20.9 8.8,17.2 10,16.5 			"/>
			<line class="st3" x1="12" y1="22.7" x2="12" y2="18.9"/>
			<line class="st4" x1="12" y1="19" x2="15.3" y2="17.2"/>
			<line class="st4" x1="12" y1="19" x2="8.8" y2="17.2"/>
		</g>
	</g>
</g>
</svg>
