<?xml version="1.0" encoding="utf-8"?>
<!-- Generator: Adobe Illustrator 22.1.0, SVG Export Plug-In . SVG Version: 6.00 Build 0)  -->
<svg version="1.1" id="Isolation_Mode" xmlns="http://www.w3.org/2000/svg" xmlns:xlink="http://www.w3.org/1999/xlink" x="0px"
	 y="0px" viewBox="0 0 24.1 27.9" style="enable-background:new 0 0 24.1 27.9;" xml:space="preserve">
<style type="text/css">
	.st0{fill:#E24956;}
	.st1{fill:#F06E79;}
	.st2{fill:#CC2551;}
	.st3{fill:none;stroke:#FFFFFF;stroke-width:1.1783;stroke-miterlimit:10;}
	.st4{fill:#FFFFFF;}
</style>
<g>
	<g>
		<g id="XMLID_11_">
			<g>
				<polygon class="st0" points="0,7.1 0,20.9 12.1,27.9 12.1,13.6 12.1,13.6 				"/>
				<polygon class="st1" points="12.1,13.6 24.1,7 24.1,7 12.1,0 0,7 0,7.1 12.1,13.6 				"/>
				<polygon class="st2" points="12.1,13.6 12.1,27.9 24.1,20.9 24.1,7 				"/>
			</g>
		</g>
	</g>
	<g>
		<g>
			<polyline class="st3" points="6.3,11.6 10.8,11.6 13.6,18.8 18.3,18.8 			"/>
			<g>
				<polygon class="st4" points="8.7,13.6 6.7,11.6 8.7,9.6 7,9.6 5,11.6 7,13.6 				"/>
			</g>
			<g>
				<polygon class="st4" points="15.9,20.8 17.9,18.8 15.9,16.8 17.6,16.8 19.6,18.8 17.6,20.8 				"/>
			</g>
		</g>
	</g>
	<g>
		<g>
			<g>
				<polyline class="st3" points="18.3,11.6 13.8,11.6 11,18.8 6.3,18.8 				"/>
				<g>
					<polygon class="st4" points="15.9,9.6 17.9,11.6 15.9,13.6 17.6,13.6 19.6,11.6 17.6,9.6 					"/>
				</g>
				<g>
					<polygon class="st4" points="8.7,16.8 6.7,18.8 8.7,20.8 7,20.8 5,18.8 7,16.8 					"/>
				</g>
			</g>
		</g>
	</g>
</g>
</svg>
