<?xml version="1.0" encoding="utf-8"?>
<!-- Generator: Adobe Illustrator 22.1.0, SVG Export Plug-In . SVG Version: 6.00 Build 0)  -->
<svg version="1.1" id="Isolation_Mode" xmlns="http://www.w3.org/2000/svg" xmlns:xlink="http://www.w3.org/1999/xlink" x="0px"
	 y="0px" viewBox="0 0 24.1 27.9" style="enable-background:new 0 0 24.1 27.9;" xml:space="preserve">
<style type="text/css">
	.st0{fill:#E24956;}
	.st1{fill:#F06E79;}
	.st2{fill:#CC2551;}
	.st3{fill:none;stroke:#FDFEFF;stroke-width:0.5148;stroke-miterlimit:10;}
	.st4{fill:none;stroke:#FDFEFF;stroke-width:0.7722;stroke-miterlimit:10;}
	.st5{fill:#FDFEFF;}
</style>
<g>
	<g>
		<g id="XMLID_9_">
			<g>
				<polygon class="st0" points="0,7.1 0,20.9 12.1,27.9 12.1,13.6 12.1,13.6 				"/>
				<polygon class="st1" points="12.1,13.6 24.1,7 24.1,7 12.1,0 0,7 0,7.1 12.1,13.6 				"/>
				<polygon class="st2" points="12.1,13.6 12.1,27.9 24.1,20.9 24.1,7 				"/>
			</g>
		</g>
	</g>
	<g>
		<g>
			<polyline class="st3" points="8.3,10.2 6.4,10.2 6.4,20.8 15.1,20.8 15.1,19.2 			"/>
			<path class="st4" d="M8.9,7.1v11.4h8.8V7.1H8.9z"/>
		</g>
		<rect x="10.3" y="9.1" class="st5" width="6.1" height="0.6"/>
		<rect x="10.3" y="10.7" class="st5" width="6.1" height="0.6"/>
		<rect x="10.3" y="12" class="st5" width="6.1" height="0.6"/>
	</g>
</g>
</svg>
